<svg width="544" height="544" viewBox="0 0 544 544" fill="none" xmlns="http://www.w3.org/2000/svg">
<circle cx="272" cy="272" r="272" fill="#0B76F0"/>
<path d="M425.671 232.682C391.601 199.484 335.722 157 272.5 157C209.278 157 153.399 199.447 119.329 232.682C97.5571 253.906 97.5571 289.057 119.329 310.318C153.399 343.516 209.278 386 272.5 386C335.722 386 391.601 343.553 425.671 310.318C447.443 289.094 447.443 253.943 425.671 232.682ZM325.075 297.569L298.494 324.246C284.139 338.652 260.898 338.652 246.543 324.246L219.962 297.569C205.607 283.162 205.607 259.838 219.962 245.431L246.543 218.754C260.898 204.348 284.139 204.348 298.494 218.754L325.075 245.431C339.43 259.838 339.43 283.162 325.075 297.569Z" fill="white" fill-opacity="0.6"/>
</svg>
