<svg width="544" height="544" viewBox="0 0 544 544" fill="none" xmlns="http://www.w3.org/2000/svg">
<circle cx="272" cy="272" r="272" fill="#4DCB5F"/>
<path d="M372.28 292.456C360.655 280.873 360.655 262.127 372.28 250.544L404.281 218.659C415.906 207.076 415.906 188.33 404.281 176.747L368.091 140.687C356.465 129.104 337.651 129.104 326.026 140.687L293.532 173.063C281.907 184.646 263.093 184.646 251.468 173.063L218.974 140.687C207.349 129.104 188.535 129.104 176.909 140.687L140.719 176.747C129.094 188.33 129.094 207.076 140.719 218.659L172.719 250.544C184.345 262.127 184.345 280.873 172.719 292.456L140.719 324.341C129.094 335.924 129.094 354.67 140.719 366.253L176.909 402.313C188.535 413.896 207.349 413.896 218.974 402.313L251.468 369.937C263.093 358.354 281.907 358.354 293.532 369.937L326.026 402.313C337.651 413.896 356.465 413.896 368.091 402.313L404.281 366.253C415.906 354.67 415.906 335.924 404.281 324.341L372.28 292.456ZM321.795 292.456L293.491 320.657C281.866 332.24 263.052 332.24 251.427 320.657L223.123 292.456C211.498 280.873 211.498 262.127 223.123 250.544L251.427 222.343C263.052 210.76 281.866 210.76 293.491 222.343L321.795 250.544C333.42 262.127 333.42 280.873 321.795 292.456Z" fill="white" fill-opacity="0.6"/>
</svg>
