<svg width="544" height="544" viewBox="0 0 544 544" fill="none" xmlns="http://www.w3.org/2000/svg">
<circle cx="272" cy="272" r="272" fill="#B9C5DF"/>
<path d="M367.352 142.049L353.666 201.461C350.767 213.94 358.058 226.547 370.336 230.295L428.701 248.14C451.766 255.209 451.766 287.79 428.701 294.86L370.336 312.705C358.058 316.453 350.767 329.06 353.666 341.539L367.352 400.951C372.766 424.418 344.5 440.73 326.85 424.333L282.17 382.765C272.79 374.034 258.21 374.034 248.83 382.765L204.15 424.333C186.5 440.772 158.234 424.46 163.648 400.951L177.334 341.539C180.233 329.06 172.942 316.453 160.664 312.705L102.299 294.86C79.2338 287.79 79.2338 255.209 102.299 248.14L160.664 230.295C172.942 226.547 180.233 213.94 177.334 201.461L163.648 142.049C158.234 118.582 186.5 102.27 204.15 118.667L248.83 160.235C258.21 168.966 272.79 168.966 282.17 160.235L326.85 118.667C344.5 102.228 372.766 118.54 367.352 142.049Z" fill="white" fill-opacity="0.6"/>
</svg>
